# Generated by tools/generate_example_meshes.py
v -0.100000000 0.000000000 -0.000000000
v 0.100000000 0.000000000 -0.000000000
v -0.100000000 0.366666667 -0.006000000
v 0.100000000 0.366666667 -0.006000000
v -0.100000000 0.733333333 -0.024000000
v 0.100000000 0.733333333 -0.024000000
v -0.100000000 1.100000000 -0.054000000
v 0.100000000 1.100000000 -0.054000000
v -0.070000000 1.466666667 -0.096000000
v 0.070000000 1.466666667 -0.096000000
v -0.040000000 1.833333333 -0.150000000
v 0.040000000 1.833333333 -0.150000000
v 0.000000000 2.200000000 -0.150000000
vt 0.000000000 0.000000000
vt 1.000000000 0.000000000
vt 0.000000000 0.200000000
vt 1.000000000 0.200000000
vt 0.000000000 0.400000000
vt 1.000000000 0.400000000
vt 0.000000000 0.600000000
vt 1.000000000 0.600000000
vt 0.000000000 0.800000000
vt 1.000000000 0.800000000
vt 0.000000000 1.000000000
vt 1.000000000 1.000000000
vt 0.500000000 1.000000000
vn 0.000000000 0.000000000 1.000000000
vn 0.000000000 0.000000000 1.000000000
vn 0.000000000 0.011999136 0.999928008
vn 0.000000000 0.011999136 0.999928008
vn 0.000000000 0.047944799 0.998849987
vn 0.000000000 0.047944799 0.998849987
vn 0.000000000 0.107375601 0.994218527
vn 0.000000000 0.107375601 0.994218527
vn 0.000000000 0.188555989 0.982062442
vn 0.000000000 0.188555989 0.982062442
vn 0.000000000 0.287347886 0.957826285
vn 0.000000000 0.287347886 0.957826285
vn 0.000000000 0.000000000 1.000000000
f 1/1/1 2/2/2 3/3/3
f 2/2/2 4/4/4 3/3/3
f 3/3/3 4/4/4 5/5/5
f 4/4/4 6/6/6 5/5/5
f 5/5/5 6/6/6 7/7/7
f 6/6/6 8/8/8 7/7/7
f 7/7/7 8/8/8 9/9/9
f 8/8/8 10/10/10 9/9/9
f 9/9/9 10/10/10 11/11/11
f 10/10/10 12/12/12 11/11/11
f 11/11/11 12/12/12 13/13/13
